{
    "asset" : {
        "generator" : "Khronos glTF Blender I/O v1.7.33",
        "version" : "2.0"
    },
    "scene" : 0,
    "scenes" : [
        {
            "name" : "Scene",
            "nodes" : [
                0,
                1
            ]
        }
    ],
    "nodes" : [
        {
            "mesh" : 0,
            "name" : "Text",
            "translation" : [
                0.31343621015548706,
                -0.3138538599014282,
                0.248305082321167
            ]
        },
        {
            "mesh" : 1,
            "name" : "Text.001",
            "translation" : [
                0.31343621015548706,
                -0.3138538599014282,
                0.248305082321167
            ]
        }
    ],
    "materials" : [
        {
            "doubleSided" : true,
            "name" : "Material",
            "pbrMetallicRoughness" : {
                "baseColorFactor" : [
                    0.08182630687952042,
                    0.5,
                    0.3264833986759186,
                    1
                ],
                "metallicFactor" : 0,
                "roughnessFactor" : 0.4000000059604645
            }
        }
    ],
    "meshes" : [
        {
            "name" : "Text.001",
            "primitives" : [
                {
                    "attributes" : {
                        "POSITION" : 0,
                        "NORMAL" : 1,
                        "TEXCOORD_0" : 2
                    },
                    "indices" : 3
                }
            ]
        },
        {
            "name" : "Text.001",
            "primitives" : [
                {
                    "attributes" : {
                        "POSITION" : 0,
                        "NORMAL" : 1,
                        "TEXCOORD_0" : 2
                    },
                    "indices" : 3,
                    "material" : 0
                }
            ]
        }
    ],
    "accessors" : [
        {
            "bufferView" : 0,
            "componentType" : 5126,
            "count" : 3696,
            "max" : [
                2.9700002670288086,
                0.07000000029802322,
                0.23000000417232513
            ],
            "min" : [
                0.04000000283122063,
                -0.07000000029802322,
                -0.6910000443458557
            ],
            "type" : "VEC3"
        },
        {
            "bufferView" : 1,
            "componentType" : 5126,
            "count" : 3696,
            "type" : "VEC3"
        },
        {
            "bufferView" : 2,
            "componentType" : 5126,
            "count" : 3696,
            "type" : "VEC2"
        },
        {
            "bufferView" : 3,
            "componentType" : 5123,
            "count" : 6612,
            "type" : "SCALAR"
        }
    ],
    "bufferViews" : [
        {
            "buffer" : 0,
            "byteLength" : 44352,
            "byteOffset" : 0
        },
        {
            "buffer" : 0,
            "byteLength" : 44352,
            "byteOffset" : 44352
        },
        {
            "buffer" : 0,
            "byteLength" : 29568,
            "byteOffset" : 88704
        },
        {
            "buffer" : 0,
            "byteLength" : 13224,
            "byteOffset" : 118272
        }
    ],
    "buffers" : [
        {
            "byteLength" : 131496,
            "uri" : "data:application/octet-stream;base64,"
        }
    ]
}
